<svg width="20" height="20" viewBox="0 0 20 20" fill="none" xmlns="http://www.w3.org/2000/svg">
<path d="M18.8905 17.7812L14.2928 13.1797C15.4325 11.7891 16.1194 10.0078 16.1194 8.06641C16.1194 3.61328 12.5091 0 8.0597 0C3.60637 0 0 3.61328 0 8.06641C0 12.5195 3.60637 16.1328 8.0597 16.1328C9.99949 16.1328 11.7754 15.4492 13.1648 14.3086L17.7626 18.9062C18.0748 19.2188 18.5783 19.2188 18.8905 18.9062C19.2028 18.5977 19.2028 18.0898 18.8905 17.7812ZM8.0597 14.5273C4.49626 14.5273 1.60023 11.6289 1.60023 8.06641C1.60023 4.50391 4.49626 1.60156 8.0597 1.60156C11.6192 1.60156 14.5192 4.50391 14.5192 8.06641C14.5192 11.6289 11.6192 14.5273 8.0597 14.5273Z" fill="black"/>
</svg>
